<svg xmlns="http://www.w3.org/2000/svg" viewBox="0 0 200 200" width="500" height="500">
  <defs>
    <linearGradient id="cloudGrad" x1="0%" y1="0%" x2="100%" y2="0%">
      <stop offset="0%" stop-color="#6d28d9"/>
      <stop offset="100%" stop-color="#2563eb"/>
    </linearGradient>
  </defs>

  <path d="M 65 115 A 18 18 0 0 1 65 80 A 35 35 0 0 1 125 70 A 25 25 0 0 1 150 115" fill="none" stroke="url(#cloudGrad)" stroke-width="6" stroke-linecap="round" stroke-linejoin="round"/>
  
  <path d="M 65 85 Q 72 85 72 78 Q 72 85 79 85 Q 72 85 72 92 Q 72 85 65 85 Z" fill="url(#cloudGrad)"/>
  <path d="M 85 70 Q 89 70 89 66 Q 89 70 93 70 Q 89 70 89 74 Q 89 70 85 70 Z" fill="url(#cloudGrad)"/>
  <circle cx="62" cy="98" r="2.5" fill="#6d28d9"/>
  <circle cx="67" cy="105" r="1.5" fill="#6d28d9"/>

  <path d="M 72 125 A 28 28 0 1 1 128 125 A 28 28 0 0 1 85 148 L 80 158 L 88 150 A 28 28 0 0 1 72 125 Z" fill="none" stroke="#0f172a" stroke-width="5" stroke-linecap="round" stroke-linejoin="round"/>
  
  <line x1="82" y1="115" x2="102" y2="115" stroke="#0f172a" stroke-width="4" stroke-linecap="round"/>
  <line x1="82" y1="125" x2="102" y2="125" stroke="#0f172a" stroke-width="4" stroke-linecap="round"/>
  <line x1="82" y1="135" x2="102" y2="135" stroke="#0f172a" stroke-width="4" stroke-linecap="round"/>

  <path d="M 108 140 L 125 90 L 135 93 L 118 143 Z" fill="#0f172a"/>
  <path d="M 108 140 L 118 143 L 105 152 Z" fill="#0f172a"/>
  <path d="M 126 86 L 136 89 L 140 78 L 130 75 Z" fill="#0f172a"/>
  <path d="M 108 140 L 125 90 L 135 93 L 118 143 Z" fill="#0f172a" stroke="#f8fafc" stroke-width="1.5"/>
</svg>